# xmcd
#
# Track frame offsets:
#	150
#	14407
#	43275
#	88031
#	107564
#	120671
#	132426
#	153126
#	179217
#	201885
#
# Disc length: 2975
#
# Revision: 1
# Processed by: cddbd v1.5.1PL0 Copyright (c) Steve Scherf et al.
# Submitted via: audiograbber 1.81.02
# Normalized: r0:TDELIM( - )
#
DISCID=8a0b9d0a
DTITLE=Various Artist - Blues Legends, Vol. 2 [CD3)
DYEAR=1900
DGENRE=Blues
TTITLE0=Leadbelly - The Bull Weevil
TTITLE1=T-Bone Walker - Stormy Monday Blues
TTITLE2=Big Joe Turner - Everyday
TTITLE3=John Mayall - Road Show
TTITLE4=Mississippi Fred McDowell - Big Fat Mama
TTITLE5=Bo Diddley - Can I Go Home With You
TTITLE6=Buddy Guy and Junior Wells - Just to be with You
TTITLE7=John Mayall - Mexico City
TTITLE8=Bo Diddley - Mona
TTITLE9=John Mayall - A Big Man
EXTD=
EXTT0=
EXTT1=
EXTT2=
EXTT3=
EXTT4=
EXTT5=
EXTT6=
EXTT7=
EXTT8=
EXTT9=
PLAYORDER=
